<?xml version="1.0" encoding="UTF-8"?>
<svg version="1.1" xmlns="http://www.w3.org/2000/svg" width="720" height="720">
<path d="M0 0 C4.93118269 3.48790971 8.5680539 7.03910339 10.5625 12.8125 C11.25008093 19.66005255 11.14028704 24.79016163 7.5625 30.8125 C5.6875 33.09375 5.6875 33.09375 3.5625 35.3125 C-11.3247124 51.50053679 -22.82798738 69.57310429 -31.4375 89.8125 C-31.70900879 90.44800781 -31.98051758 91.08351563 -32.26025391 91.73828125 C-36.95821687 102.95071418 -39.90582728 114.59644823 -42.81103516 126.37915039 C-43.32462231 128.37405418 -43.92063503 130.34756734 -44.5390625 132.3125 C-45.7655162 137.09033702 -46.1533491 141.84354291 -46.5625 146.75 C-46.64886719 147.72001953 -46.73523438 148.69003906 -46.82421875 149.68945312 C-47.03471119 152.06334011 -47.23897885 154.43758706 -47.4375 156.8125 C-34.40061173 155.19552161 -22.30130444 151.77957395 -9.796875 147.8125 C-4.30978083 146.07212902 1.19124511 144.43308222 6.75 142.9375 C7.4298999 142.74687988 8.1097998 142.55625977 8.81030273 142.35986328 C22.38671259 138.77816747 36.12284804 138.43852667 50.0625 138.5 C50.94301025 138.50215515 51.82352051 138.5043103 52.73071289 138.50653076 C99.86256502 138.69132385 146.69707557 151.83680047 181.5625 184.8125 C181.2325 185.4725 180.9025 186.1325 180.5625 186.8125 C177.71564326 187.71957169 174.88166194 188.53136923 172 189.3125 C127.59628565 202.07010311 86.12618916 229.37261034 57.5625 265.8125 C56.77230469 266.78574219 55.98210937 267.75898438 55.16796875 268.76171875 C48.11457793 277.61455731 42.24339508 287.0330394 36.5625 296.8125 C36.01746826 297.73554932 36.01746826 297.73554932 35.46142578 298.67724609 C18.16260894 328.19868316 7.66393999 364.43182296 7.32421875 398.7109375 C7.3144249 399.53523254 7.30463104 400.35952759 7.29454041 401.20880127 C6.78546921 455.23307148 20.10526082 508.04016837 54.5625 550.8125 C55.27792969 551.71871094 55.99335938 552.62492188 56.73046875 553.55859375 C62.37107202 560.59686862 68.38487826 567.24759617 74.5625 573.8125 C75.17867188 574.47121094 75.79484375 575.12992188 76.4296875 575.80859375 C81.40113703 580.95844458 86.96423672 585.36746436 92.5625 589.8125 C93.54089844 590.60785156 94.51929688 591.40320313 95.52734375 592.22265625 C111.19854292 604.69242508 129.10780568 615.04210239 147.5625 622.8125 C146.0153708 627.26789391 143.63021982 630.9986768 141 634.875 C140.55599854 635.5340332 140.11199707 636.19306641 139.65454102 636.87207031 C129.47647044 651.86142795 118.01626808 665.67691021 105.5625 678.8125 C104.73878906 679.69035156 103.91507813 680.56820312 103.06640625 681.47265625 C85.26269216 699.91952586 59.95742415 718.36719087 33.49609375 719.2109375 C30.99741776 719.2239988 28.49855274 719.21554482 26 719.1875 C25.34331329 719.18251495 24.68662659 719.17752991 24.01004028 719.1723938 C0.76272722 718.96629123 -18.62488487 712.97352091 -40.17114258 704.7421875 C-64.25984111 695.64999176 -88.29510871 700.34600267 -111.5390625 709.3984375 C-118.41367121 712.07498552 -125.1850657 714.42774047 -132.375 716.125 C-133.04861572 716.28436035 -133.72223145 716.4437207 -134.41625977 716.60791016 C-144.31921234 718.81614076 -154.12674635 719.02238805 -164.25 719.0625 C-166.18456055 719.0934375 -166.18456055 719.0934375 -168.15820312 719.125 C-180.05807758 719.17315326 -190.13213129 716.94984914 -200.8125 711.75 C-201.62485107 711.3578833 -202.43720215 710.9657666 -203.27416992 710.56176758 C-210.9484354 706.74390172 -217.77010674 702.17722619 -224.4375 696.8125 C-225.00774902 696.35504395 -225.57799805 695.89758789 -226.16552734 695.42626953 C-239.22139633 684.82951657 -251.0929149 673.07573589 -261.4375 659.8125 C-262.2625 658.80445313 -263.0875 657.79640625 -263.9375 656.7578125 C-269.74076851 649.62747302 -275.00913923 642.20095793 -280.125 634.5625 C-280.74979248 633.63260254 -281.37458496 632.70270508 -282.01831055 631.74462891 C-282.88129761 630.44017822 -282.88129761 630.44017822 -283.76171875 629.109375 C-284.27822998 628.32916992 -284.79474121 627.54896484 -285.3269043 626.74511719 C-286.4375 624.8125 -286.4375 624.8125 -286.4375 622.8125 C-284.72820312 622.04679688 -284.72820312 622.04679688 -282.984375 621.265625 C-266.05081774 613.54275144 -249.96170413 604.51314751 -235.4375 592.8125 C-234.53128906 592.09707031 -233.62507813 591.38164063 -232.69140625 590.64453125 C-225.65313138 585.00392798 -219.00240383 578.99012174 -212.4375 572.8125 C-211.77878906 572.19632813 -211.12007813 571.58015625 -210.44140625 570.9453125 C-205.29155542 565.97386297 -200.88253564 560.41076328 -196.4375 554.8125 C-195.64214844 553.83410156 -194.84679687 552.85570312 -194.02734375 551.84765625 C-186.98420589 542.99629599 -181.11474892 533.58568386 -175.4375 523.8125 C-175.07414551 523.19713379 -174.71079102 522.58176758 -174.33642578 521.94775391 C-157.03760894 492.42631684 -146.53893999 456.19317704 -146.19921875 421.9140625 C-146.1894249 421.08976746 -146.17963104 420.26547241 -146.16954041 419.41619873 C-145.66046921 365.39192852 -158.98026082 312.58483163 -193.4375 269.8125 C-194.15292969 268.90628906 -194.86835938 268.00007813 -195.60546875 267.06640625 C-201.24607202 260.02813138 -207.25987826 253.37740383 -213.4375 246.8125 C-214.05367188 246.15378906 -214.66984375 245.49507812 -215.3046875 244.81640625 C-220.27613703 239.66655542 -225.83923672 235.25753564 -231.4375 230.8125 C-232.41589844 230.01714844 -233.39429688 229.22179687 -234.40234375 228.40234375 C-243.25370401 221.35920589 -252.66431614 215.48974892 -262.4375 209.8125 C-263.05286621 209.44914551 -263.66823242 209.08579102 -264.30224609 208.71142578 C-281.34179042 198.72668298 -300.37567412 191.79427017 -319.4375 186.8125 C-319.4375 183.8125 -319.4375 183.8125 -317.77734375 181.90234375 C-293.85852316 160.4726362 -263.74198903 147.8330428 -232.4375 141.8125 C-231.60895508 141.64878906 -230.78041016 141.48507813 -229.92675781 141.31640625 C-196.47399125 135.02369773 -161.91230942 137.47432264 -129.7265625 147.8125 C-116.43156973 152.07913407 -103.34776961 155.41939378 -89.4375 156.8125 C-89.34045776 155.86503906 -89.34045776 155.86503906 -89.24145508 154.8984375 C-83.77343595 102.78094014 -67.65089305 53.6709995 -32.91015625 13.6640625 C-30.93775681 11.38941543 -29.02633128 9.08322637 -27.125 6.75 C-19.79731255 -1.2593328 -10.31927216 -3.56483947 0 0 Z " fill="#E9BD6A" transform="translate(429.4375,1.1875)"/>
<path d="M0 0 C0.495 0.99 0.495 0.99 1 2 C2.11632812 2.02578125 3.23265625 2.0515625 4.3828125 2.078125 C26.59465178 2.79727388 53.34145631 5.31098116 69.87890625 21.8828125 C76.1616302 29.27590601 79.88420483 38.51729879 84.05419922 47.19335938 C91.54684592 62.62443954 100.60399237 75.77619798 117.265625 82.2734375 C136.76608327 88.66777382 158.64749019 86.67912699 178.75 84.6875 C179.94906982 84.56987305 181.14813965 84.45224609 182.38354492 84.33105469 C189.7542328 83.53565306 196.94458098 82.29147912 204.20019531 80.77856445 C207.98922667 80.00220741 211.78410714 79.30797034 215.59375 78.640625 C231.14801832 75.90805239 246.57479257 72.89201806 261.94921875 69.27246094 C272.01146865 66.91580444 272.01146865 66.91580444 276.80859375 66.42578125 C277.86175781 66.28527344 278.91492188 66.14476562 280 66 C280.33 65.34 280.66 64.68 281 64 C281.74121094 64.53367187 282.48242188 65.06734375 283.24609375 65.6171875 C297.42016731 75.64486745 312.15937475 83.90244826 328 91 C326.4528708 95.45539391 324.06771982 99.1861768 321.4375 103.0625 C320.99349854 103.7215332 320.54949707 104.38056641 320.09204102 105.05957031 C309.91397044 120.04892795 298.45376808 133.86441021 286 147 C285.17628906 147.87785156 284.35257813 148.75570312 283.50390625 149.66015625 C265.70019216 168.10702586 240.39492415 186.55469087 213.93359375 187.3984375 C211.43491776 187.4114988 208.93605274 187.40304482 206.4375 187.375 C205.78081329 187.37001495 205.12412659 187.36502991 204.44754028 187.3598938 C181.20022722 187.15379123 161.81261513 181.16102091 140.26635742 172.9296875 C116.17765889 163.83749176 92.14239129 168.53350267 68.8984375 177.5859375 C62.02382879 180.26248552 55.2524343 182.61524047 48.0625 184.3125 C47.05207642 184.55154053 47.05207642 184.55154053 46.02124023 184.79541016 C36.11828766 187.00364076 26.31075365 187.20988805 16.1875 187.25 C14.25293945 187.2809375 14.25293945 187.2809375 12.27929688 187.3125 C0.37942242 187.36065326 -9.69463129 185.13734914 -20.375 179.9375 C-21.18735107 179.5453833 -21.99970215 179.1532666 -22.83666992 178.74926758 C-30.5109354 174.93140172 -37.33260674 170.36472619 -44 165 C-44.85537354 164.31381592 -44.85537354 164.31381592 -45.72802734 163.61376953 C-58.78389633 153.01701657 -70.6554149 141.26323589 -81 128 C-81.825 126.99195313 -82.65 125.98390625 -83.5 124.9453125 C-89.30326851 117.81497302 -94.57163923 110.38845793 -99.6875 102.75 C-100.31229248 101.82010254 -100.93708496 100.89020508 -101.58081055 99.93212891 C-102.15613525 99.06249512 -102.73145996 98.19286133 -103.32421875 97.296875 C-103.84072998 96.51666992 -104.35724121 95.73646484 -104.8894043 94.93261719 C-106 93 -106 93 -106 91 C-104.86046875 90.48953125 -103.7209375 89.9790625 -102.546875 89.453125 C-85.61331774 81.73025144 -69.52420413 72.70064751 -55 61 C-53.64068359 59.92685547 -53.64068359 59.92685547 -52.25390625 58.83203125 C-45.21563138 53.19142798 -38.56490383 47.17762174 -32 41 C-31.34128906 40.38382813 -30.68257813 39.76765625 -30.00390625 39.1328125 C-24.85490449 34.16218263 -20.43846486 28.60229685 -16 23 C-15.57750977 22.47035645 -15.15501953 21.94071289 -14.71972656 21.39501953 C-9.28134418 14.55941625 -4.25166348 7.6564509 0 0 Z " fill="#DD2E44" transform="translate(249,533)"/>
<path d="M0 0 C4.93118269 3.48790971 8.5680539 7.03910339 10.5625 12.8125 C11.25008093 19.66005255 11.14028704 24.79016163 7.5625 30.8125 C5.6875 33.09375 5.6875 33.09375 3.5625 35.3125 C-11.3247124 51.50053679 -22.82798738 69.57310429 -31.4375 89.8125 C-31.70900879 90.44800781 -31.98051758 91.08351563 -32.26025391 91.73828125 C-36.95821687 102.95071418 -39.90582728 114.59644823 -42.81103516 126.37915039 C-43.32462231 128.37405418 -43.92063503 130.34756734 -44.5390625 132.3125 C-45.7655162 137.09033702 -46.1533491 141.84354291 -46.5625 146.75 C-46.64886719 147.72001953 -46.73523438 148.69003906 -46.82421875 149.68945312 C-47.03471119 152.06334011 -47.23897885 154.43758706 -47.4375 156.8125 C-34.40061173 155.19552161 -22.30130444 151.77957395 -9.796875 147.8125 C-4.30978083 146.07212902 1.19124511 144.43308222 6.75 142.9375 C7.4298999 142.74687988 8.1097998 142.55625977 8.81030273 142.35986328 C22.38671259 138.77816747 36.12284804 138.43852667 50.0625 138.5 C50.94301025 138.50215515 51.82352051 138.5043103 52.73071289 138.50653076 C99.86256502 138.69132385 146.69707557 151.83680047 181.5625 184.8125 C181.2325 185.4725 180.9025 186.1325 180.5625 186.8125 C177.71564326 187.71957169 174.88166194 188.53136923 172 189.3125 C140.60815197 198.33167202 108.89550683 214.40756287 85.44140625 237.53515625 C83.5625 238.8125 83.5625 238.8125 80.83959961 239.25561523 C77.43158386 239.83474687 74.4897342 240.80110435 71.25 242 C70.02498779 242.44714355 68.79997559 242.89428711 67.5378418 243.35498047 C66.5675856 243.7114566 66.5675856 243.7114566 65.57772827 244.07513428 C-19.44026283 275.18295136 -19.44026283 275.18295136 -55.99609375 258.5703125 C-65.07406409 253.93343775 -73.01192781 247.68313888 -81.03125 241.453125 C-97.16718058 228.92999558 -112.76827168 218.82932916 -132.4375 212.8125 C-133.4275 212.49539062 -134.4175 212.17828125 -135.4375 211.8515625 C-152.254677 207.02617933 -170.77721792 207.41193922 -188.125 207.4375 C-189.14234222 207.4360498 -190.15968445 207.43459961 -191.20785522 207.43310547 C-210.91216121 207.43616904 -230.35713523 208.92222551 -249.91970825 211.20272827 C-258.18219711 212.16475496 -258.18219711 212.16475496 -262.0078125 209.9765625 C-262.72662598 209.57655029 -263.44543945 209.17653809 -264.18603516 208.7644043 C-264.97026855 208.32652588 -265.75450195 207.88864746 -266.5625 207.4375 C-283.26347931 198.39696793 -301.07395322 191.61177633 -319.4375 186.8125 C-319.4375 183.8125 -319.4375 183.8125 -317.77734375 181.90234375 C-293.85852316 160.4726362 -263.74198903 147.8330428 -232.4375 141.8125 C-231.60895508 141.64878906 -230.78041016 141.48507813 -229.92675781 141.31640625 C-196.47399125 135.02369773 -161.91230942 137.47432264 -129.7265625 147.8125 C-116.43156973 152.07913407 -103.34776961 155.41939378 -89.4375 156.8125 C-89.34045776 155.86503906 -89.34045776 155.86503906 -89.24145508 154.8984375 C-83.77343595 102.78094014 -67.65089305 53.6709995 -32.91015625 13.6640625 C-30.93775681 11.38941543 -29.02633128 9.08322637 -27.125 6.75 C-19.79731255 -1.2593328 -10.31927216 -3.56483947 0 0 Z " fill="#DD2E44" transform="translate(429.4375,1.1875)"/>
<path d="M0 0 C1.47593628 -0.00217529 1.47593628 -0.00217529 2.98168945 -0.00439453 C13.35798009 -0.00265864 23.65640207 0.31252869 33.9921875 1.26171875 C34.82418167 1.33713898 35.65617584 1.4125592 36.51338196 1.49026489 C62.153312 4.10536669 84.35881498 15.68751716 104.03662109 31.8293457 C128.04615291 51.45027584 150.48379238 60.18854178 181.71240234 57.07324219 C208.58317892 53.49520718 235.81341449 43.98866522 260.87353516 33.87792969 C262.18136963 33.35634277 262.18136963 33.35634277 263.515625 32.82421875 C264.2571582 32.51830811 264.99869141 32.21239746 265.76269531 31.8972168 C267.6875 31.375 267.6875 31.375 270.6875 32.375 C270.23947021 32.81255615 269.79144043 33.2501123 269.32983398 33.70092773 C267.2560144 35.7325607 265.18967014 37.7715695 263.125 39.8125 C262.0117334 40.90824341 262.0117334 40.90824341 260.87597656 42.02612305 C257.16444308 45.72493456 253.83335532 49.29630378 250.9375 53.6875 C248.40010309 57.16724351 246.45916221 57.99047775 242.27734375 58.86328125 C237.95033216 59.83941392 233.72353815 60.92146927 229.48828125 62.2421875 C193.29398032 73.45884543 156.24011387 81.93832353 120.99291992 63.52075195 C109.65805311 57.35968322 99.74445243 49.24443768 89.85546875 41.01953125 C87.69784337 39.19989328 87.69784337 39.19989328 84.6875 38.375 C84.79501587 39.00819656 84.90253174 39.64139313 85.01330566 40.29377747 C120.91829448 252.11884383 120.91829448 252.11884383 89.6875 321.375 C87.85420718 323.62006758 85.97940034 325.7610203 83.97265625 327.8515625 C82.47256687 329.29759891 82.47256687 329.29759891 82.6875 331.375 C83.656875 332.1175 84.62625 332.86 85.625 333.625 C95.8756572 342.30020689 101.33608646 356.30688078 106.99462891 368.13574219 C112.7166083 379.95468078 118.54708353 388.69556965 131.375 393.1875 C167.88438387 404.5322238 215.92781726 390.46483248 252.18359375 382.5546875 C253.16935646 382.33989243 253.16935646 382.33989243 254.17503357 382.12075806 C257.22529496 381.45260487 260.2710182 380.76890031 263.31323242 380.06494141 C264.36744385 379.82694824 265.42165527 379.58895508 266.5078125 379.34375 C267.87317139 379.02567383 267.87317139 379.02567383 269.26611328 378.70117188 C273.28549192 378.15974317 275.15865635 378.99949857 278.44921875 381.3359375 C279.89748047 382.53089844 279.89748047 382.53089844 281.375 383.75 C282.83486328 384.93722656 282.83486328 384.93722656 284.32421875 386.1484375 C286.6875 388.375 286.6875 388.375 287.6875 391.375 C277.38805767 394.43318097 266.88403425 396.55922308 256.375 398.75 C255.42840515 398.94820343 254.4818103 399.14640686 253.50653076 399.35061646 C236.96112099 402.80578681 220.39496337 405.81137994 203.6875 408.375 C202.5722998 408.5503125 201.45709961 408.725625 200.30810547 408.90625 C185.76717286 411.18123294 171.48464063 412.55788569 156.75 412.625 C155.64962402 412.63418457 154.54924805 412.64336914 153.41552734 412.65283203 C136.78845113 412.59048361 121.31451839 409.83146639 108.6875 398.375 C108.08550781 397.86453125 107.48351562 397.3540625 106.86328125 396.828125 C98.23426835 388.99414475 93.49545888 378.13658241 88.6875 367.75 C81.27833502 351.86178493 73.3629311 341.68010177 56.40942383 335.44116211 C41.12998096 330.27308943 24.67287439 328.7778735 8.6875 327.375 C9.2359323 322.28953688 11.71117115 318.56493347 14.25 314.25 C33.29635949 280.8224617 42.15063711 242.86475287 42.0625 204.5625 C42.06195618 203.6675885 42.06141235 202.772677 42.06085205 201.85064697 C41.92295316 152.24124668 26.03135937 102.28264262 -5.3125 63.375 C-6.02792969 62.46878906 -6.74335938 61.56257813 -7.48046875 60.62890625 C-13.12107202 53.59063138 -19.13487826 46.93990383 -25.3125 40.375 C-25.92867187 39.71628906 -26.54484375 39.05757812 -27.1796875 38.37890625 C-32.15019223 33.23003413 -37.70957402 28.81245947 -43.3125 24.375 C-43.83682617 23.95782715 -44.36115234 23.5406543 -44.90136719 23.11083984 C-51.48726181 17.88692885 -58.0745479 13.0794886 -65.36328125 8.84765625 C-66.32814453 8.11869141 -66.32814453 8.11869141 -67.3125 7.375 C-67.3125 6.385 -67.3125 5.395 -67.3125 4.375 C-44.87169346 1.71157094 -22.61126033 -0.03226339 0 0 Z " fill="#FECF74" transform="translate(241.3125,207.625)"/>
<path d="M0 0 C4.93118269 3.48790971 8.5680539 7.03910339 10.5625 12.8125 C11.25008093 19.66005255 11.14028704 24.79016163 7.5625 30.8125 C5.6875 33.09375 5.6875 33.09375 3.5625 35.3125 C-11.3247124 51.50053679 -22.82798738 69.57310429 -31.4375 89.8125 C-31.70900879 90.44800781 -31.98051758 91.08351563 -32.26025391 91.73828125 C-36.95896678 102.95250394 -39.90479211 114.59987594 -42.81274414 126.38378906 C-43.31897305 128.3517317 -43.9037329 130.29935909 -44.51171875 132.23828125 C-45.85283489 137.4160081 -46.40793637 142.6283903 -47 147.9375 C-47.13220947 149.07952881 -47.26441895 150.22155762 -47.40063477 151.39819336 C-48.30225211 159.55015152 -48.85660271 167.66961162 -48.88305664 175.87353516 C-49.01984809 182.31661068 -50.50807129 188.41588015 -54.8137207 193.40820312 C-59.9389021 197.99657207 -65.43536431 199.30540264 -72.1328125 199.125 C-77.49844823 198.39745617 -81.748336 195.90813294 -85.3125 191.875 C-89.93745522 185.20962336 -89.78816934 179.45138312 -89.75 171.5625 C-89.74508545 170.36391357 -89.7401709 169.16532715 -89.73510742 167.93041992 C-89.01921777 112.05798601 -69.65304506 55.9766492 -32.91015625 13.6640625 C-30.93775681 11.38941543 -29.02633128 9.08322637 -27.125 6.75 C-19.79731255 -1.2593328 -10.31927216 -3.56483947 0 0 Z " fill="#662113" transform="translate(429.4375,1.1875)"/>
<path d="M0 0 C0.98404816 -0.00154083 1.96809631 -0.00308167 2.98196411 -0.00466919 C13.35812507 -0.00282481 23.65653857 0.31254122 33.9921875 1.26171875 C34.82418167 1.33713898 35.65617584 1.4125592 36.51338196 1.49026489 C62.153312 4.10536669 84.35881498 15.68751716 104.03662109 31.8293457 C128.04615291 51.45027584 150.48379238 60.18854178 181.71240234 57.07324219 C208.58317892 53.49520718 235.81341449 43.98866522 260.87353516 33.87792969 C262.18136963 33.35634277 262.18136963 33.35634277 263.515625 32.82421875 C264.2571582 32.51830811 264.99869141 32.21239746 265.76269531 31.8972168 C267.6875 31.375 267.6875 31.375 270.6875 32.375 C270.23947021 32.81255615 269.79144043 33.2501123 269.32983398 33.70092773 C267.2560144 35.7325607 265.18967014 37.7715695 263.125 39.8125 C262.0117334 40.90824341 262.0117334 40.90824341 260.87597656 42.02612305 C257.16444308 45.72493456 253.83335532 49.29630378 250.9375 53.6875 C248.40010309 57.16724351 246.45916221 57.99047775 242.27734375 58.86328125 C237.95033216 59.83941392 233.72353815 60.92146927 229.48828125 62.2421875 C193.29445534 73.45869822 156.24017738 81.93854394 120.9934082 63.52099609 C112.22721838 58.75622568 104.50189193 52.85658609 96.74609375 46.609375 C91.9433902 42.74486345 87.08379251 38.96563606 81.625 36.0625 C78.88391851 34.59472494 76.21386997 33.08430957 73.5625 31.45703125 C52.84731364 18.78308177 29.47776891 16.83421616 5.61352539 17.03717041 C2.54493918 17.06317856 -0.52310942 17.06537859 -3.59179688 17.06591797 C-14.95758904 17.1040526 -26.02474503 17.72364888 -37.3125 19 C-46.61333487 19.98697998 -52.58524858 19.22641715 -60.05859375 13.38525391 C-61.52924268 12.10668786 -62.92449112 10.74283433 -64.3125 9.375 C-65.488125 8.21871094 -65.488125 8.21871094 -66.6875 7.0390625 C-67.22375 6.48992187 -67.76 5.94078125 -68.3125 5.375 C-66.30353064 3.36603064 -62.47424466 3.70094599 -59.71484375 3.40234375 C-58.51405182 3.27088203 -58.51405182 3.27088203 -57.28900146 3.13676453 C-38.17898675 1.10025555 -19.2219745 -0.02113498 0 0 Z " fill="#FEDDA1" transform="translate(241.3125,207.625)"/>
<path d="M0 0 C16.32309182 6.33392927 25.91372503 18.75836666 33.5390625 34.109375 C34.57117941 36.13433645 35.60372897 38.15907744 36.63671875 40.18359375 C37.12414551 41.1482959 37.61157227 42.11299805 38.11376953 43.10693359 C39.86581606 46.56520099 41.65726836 49.99847205 43.4765625 53.421875 C43.9715625 54.36289062 44.4665625 55.30390625 44.9765625 56.2734375 C49.9682946 64.67098682 57.01027656 69.38644717 66.23828125 72.25390625 C103.51600906 81.29684546 148.31886608 68.97354456 184.97265625 60.9765625 C185.62983139 60.83336578 186.28700653 60.69016907 186.96409607 60.54263306 C190.01435746 59.87447987 193.0600807 59.19077531 196.10229492 58.48681641 C197.68361206 58.12982666 197.68361206 58.12982666 199.296875 57.765625 C200.20711426 57.55357422 201.11735352 57.34152344 202.05517578 57.12304688 C206.07455442 56.58161817 207.94771885 57.42137357 211.23828125 59.7578125 C212.20378906 60.55445313 213.16929687 61.35109375 214.1640625 62.171875 C215.13730469 62.96335937 216.11054687 63.75484375 217.11328125 64.5703125 C219.4765625 66.796875 219.4765625 66.796875 220.4765625 69.796875 C210.17712017 72.85505597 199.67309675 74.98109808 189.1640625 77.171875 C188.21746765 77.37007843 187.2708728 77.56828186 186.29559326 77.77249146 C169.75018349 81.22766181 153.18402587 84.23325494 136.4765625 86.796875 C135.3613623 86.9721875 134.24616211 87.1475 133.09716797 87.328125 C118.55623536 89.60310794 104.27370313 90.97976069 89.5390625 91.046875 C88.43868652 91.05605957 87.33831055 91.06524414 86.20458984 91.07470703 C69.57751363 91.01235861 54.10358089 88.25334139 41.4765625 76.796875 C40.87457031 76.28640625 40.27257812 75.7759375 39.65234375 75.25 C31.02333085 67.41601975 26.28452138 56.55845741 21.4765625 46.171875 C14.06739752 30.28365993 6.1519936 20.10197677 -10.80151367 13.86303711 C-26.08095654 8.69496443 -42.53806311 7.1997485 -58.5234375 5.796875 C-57.57751953 0.2360239 -55.53611347 -3.89227481 -51.8359375 -8.140625 C-38.26472103 -14.37604878 -13.08728536 -4.77601925 0 0 Z " fill="#FEDEA1" transform="translate(308.5234375,529.203125)"/>
<path d="M0 0 C2.69990662 1.79993774 4.5418865 3.083773 6 6 C6.53725359 11.11465418 5.47117976 13.39307838 2.3125 17.375 C-0.21776411 20.67241866 -2.70729531 23.92820733 -4.9375 27.4375 C-5.31777344 28.03433594 -5.69804687 28.63117188 -6.08984375 29.24609375 C-9.70274002 36.20828442 -8.11215049 44.72787666 -6.9375 52.125 C-6.13636492 57.46590054 -5.54725486 61.77011751 -7 67 C-9.72979703 70.21152592 -11.34255711 70.89433954 -15.5 71.5625 C-20.02186309 70.835772 -21.31528961 69.68188854 -24 66 C-25.00690159 63.36995105 -25.55810088 60.77627928 -26 58 C-26.17402344 56.96101563 -26.34804688 55.92203125 -26.52734375 54.8515625 C-28.47550659 38.97645045 -27.69183591 25.59562083 -17.94140625 12.43359375 C-7.44053944 -0.72946465 -7.44053944 -0.72946465 0 0 Z " fill="#E09E47" transform="translate(416,339)"/>
<path d="M0 0 C6.94383736 4.69780602 10.70920106 15.82125246 12.6484375 23.6015625 C14.53663759 36.48328315 12.03303793 51.88326263 5 63 C1.2626144 65.4915904 -0.57331583 65.45793285 -5 65 C-7.75329021 63.20437595 -9.52627461 61.94745078 -11 59 C-10.68075027 53.9718167 -9.92301981 49.55857833 -8.4375 44.75 C-5.25331866 33.39150239 -6.74305748 24.42770565 -12 14 C-13.42662219 11.14675563 -13.31033868 9.16545451 -13 6 C-9.33146789 0.49720183 -6.65479982 -0.88730664 0 0 Z " fill="#FFBF66" transform="translate(311,353)"/>
</svg>
