<svg xmlns="http://www.w3.org/2000/svg" width="720" height="720"><path fill="#e9bd6a" d="M429.438 1.188C434.368 4.675 438.006 8.227 440 14c.688 6.848.578 11.978-3 18-1.875 2.281-1.875 2.281-4 4.5-14.887 16.188-26.39 34.26-35 54.5l-.823 1.926c-4.698 11.212-7.645 22.858-10.55 34.64-.514 1.996-1.11 3.97-1.729 5.934-1.226 4.778-1.614 9.531-2.023 14.438l-.262 2.939q-.315 3.56-.613 7.123c13.037-1.617 25.136-5.033 37.64-9a389 389 0 0 1 16.548-4.875l2.06-.578c13.576-3.581 27.312-3.921 41.252-3.86l2.668.007C529.3 139.879 576.135 153.024 611 186l-1 2c-2.847.907-5.68 1.719-8.562 2.5C557.034 203.258 515.564 230.56 487 267l-2.395 2.95c-7.053 8.852-12.924 18.27-18.605 28.05l-1.101 1.865c-17.299 29.521-27.798 65.754-28.137 100.033l-.03 2.498C436.223 456.421 449.542 509.228 484 552l2.168 2.746c5.64 7.038 11.654 13.69 17.832 20.254l1.867 1.996c4.972 5.15 10.535 9.559 16.133 14.004l2.965 2.41c15.671 12.47 33.58 22.82 52.035 30.59-1.547 4.455-3.932 8.186-6.562 12.063l-1.346 1.997C558.914 653.049 547.454 666.864 535 680l-2.496 2.66c-17.804 18.447-43.11 36.895-69.57 37.738q-3.75.02-7.497-.023l-1.99-.015c-23.247-.206-42.634-6.199-64.18-14.43-24.09-9.093-48.125-4.396-71.369 4.656-6.874 2.676-13.646 5.03-20.836 6.726-.673.16-1.347.32-2.04.483-9.904 2.209-19.711 2.415-29.834 2.455-1.935.03-1.935.03-3.909.063-11.9.048-21.974-2.176-32.654-7.375l-2.462-1.189C218.49 707.931 211.667 703.365 205 698l-1.728-1.386C190.216 686.017 178.345 674.264 168 661l-2.5-3.055c-5.803-7.13-11.072-14.557-16.187-22.195l-1.894-2.818-1.743-2.635-1.565-2.364C143 626 143 626 143 624l3.453-1.547C163.387 614.73 179.476 605.701 194 594l2.746-2.168c7.038-5.64 13.69-11.654 20.254-17.832l1.996-1.867c5.15-4.972 9.559-10.535 14.004-16.133l2.41-2.965c7.043-8.851 12.913-18.262 18.59-28.035l1.101-1.865c17.299-29.521 27.798-65.754 28.137-100.033l.03-2.498C283.777 366.579 270.458 313.772 236 271l-2.168-2.746c-5.64-7.038-11.654-13.69-17.832-20.254l-1.867-1.996c-4.972-5.15-10.535-9.559-16.133-14.004l-2.965-2.41c-8.851-7.043-18.262-12.913-28.035-18.59l-1.865-1.101C148.095 199.914 129.062 192.982 110 188c0-3 0-3 1.66-4.91 23.92-21.43 54.036-34.07 85.34-40.09l2.51-.496c33.454-6.293 68.015-3.842 100.2 6.496 13.296 4.267 26.38 7.607 40.29 9l.196-1.914c5.468-52.118 21.59-101.228 56.331-141.234a294 294 0 0 0 5.786-6.914c7.327-8.01 16.805-10.315 27.125-6.75"/><path fill="#dd2e44" d="m249 533 1 2 3.383.078c22.212.72 48.958 3.233 65.496 19.805 6.283 7.393 10.005 16.634 14.175 25.31 7.493 15.431 16.55 28.583 33.212 35.08 19.5 6.395 41.381 4.406 61.484 2.414l3.634-.356c7.37-.795 14.56-2.04 21.816-3.552 3.79-.777 7.584-1.471 11.394-2.138 15.554-2.733 30.98-5.749 46.355-9.369 10.062-2.356 10.062-2.356 14.86-2.846L529 599l1-2 2.246 1.617C546.42 608.645 561.16 616.902 577 624c-1.547 4.455-3.932 8.186-6.562 12.063l-1.346 1.997C558.914 653.049 547.454 666.864 535 680l-2.496 2.66c-17.804 18.447-43.11 36.895-69.57 37.738q-3.75.02-7.497-.023l-1.99-.015c-23.247-.206-42.634-6.199-64.18-14.43-24.09-9.093-48.125-4.396-71.369 4.656-6.874 2.676-13.646 5.03-20.836 6.726l-2.04.483c-9.904 2.209-19.711 2.415-29.834 2.455-1.935.03-1.935.03-3.909.063-11.9.048-21.974-2.176-32.654-7.375l-2.462-1.189C218.49 707.931 211.667 703.365 205 698l-1.728-1.386C190.216 686.017 178.345 674.264 168 661l-2.5-3.055c-5.803-7.13-11.072-14.557-16.187-22.195l-1.894-2.818-1.743-2.635-1.565-2.364C143 626 143 626 143 624c1.14-.51 2.28-1.02 3.453-1.547C163.387 614.73 179.476 605.701 194 594l2.746-2.168c7.038-5.64 13.69-11.654 20.254-17.832l1.996-1.867c5.15-4.97 9.566-10.53 14.004-16.133l1.28-1.605c5.439-6.836 10.468-13.739 14.72-21.395M429.438 1.188C434.368 4.675 438.006 8.227 440 14c.688 6.848.578 11.978-3 18-1.875 2.281-1.875 2.281-4 4.5-14.887 16.188-26.39 34.26-35 54.5l-.823 1.926c-4.698 11.212-7.645 22.858-10.55 34.64-.514 1.996-1.11 3.97-1.729 5.934-1.226 4.778-1.614 9.531-2.023 14.438l-.262 2.939q-.315 3.56-.613 7.123c13.037-1.617 25.136-5.033 37.64-9a389 389 0 0 1 16.548-4.875l2.06-.578c13.576-3.581 27.312-3.921 41.252-3.86l2.668.007C529.3 139.879 576.135 153.024 611 186l-1 2c-2.847.907-5.68 1.719-8.562 2.5-31.392 9.02-63.105 25.095-86.56 48.223C513 240 513 240 510.279 240.443c-3.409.58-6.35 1.546-9.59 2.744l-3.713 1.355-1.96.72c-85.018 31.108-85.018 31.108-121.574 14.496-9.078-4.637-17.015-10.887-25.035-17.117C332.27 230.117 316.67 220.017 297 214l-3-.96c-16.817-4.826-35.34-4.44-52.687-4.415l-3.083-.004c-19.705.003-39.15 1.489-58.712 3.77-8.263.961-8.263.961-12.088-1.227l-2.179-1.212-2.376-1.327C146.174 199.585 128.364 192.799 110 188c0-3 0-3 1.66-4.91 23.92-21.43 54.036-34.07 85.34-40.09l2.51-.496c33.454-6.293 68.015-3.842 100.2 6.496 13.296 4.267 26.38 7.607 40.29 9l.196-1.914c5.468-52.118 21.59-101.228 56.331-141.234a294 294 0 0 0 5.786-6.914c7.327-8.01 16.805-10.315 27.125-6.75"/><path fill="#fecf74" d="m241.313 207.625 2.981-.004c10.376.001 20.675.317 31.01 1.266l2.522.228c25.64 2.615 47.845 14.198 67.523 30.34 24.01 19.62 46.447 28.359 77.676 25.243 26.87-3.578 54.1-13.084 79.161-23.195l2.642-1.054 2.247-.927C509 239 509 239 512 240l-1.358 1.326q-3.109 3.048-6.204 6.112l-2.25 2.213c-3.711 3.699-7.042 7.27-9.938 11.661-2.537 3.48-4.478 4.303-8.66 5.176-4.327.976-8.554 2.058-12.79 3.38-36.194 11.216-73.247 19.695-108.495 1.278-11.334-6.161-21.248-14.277-31.137-22.501-2.158-1.82-2.158-1.82-5.168-2.645l.326 1.919C362.23 459.744 362.23 459.744 331 529a107 107 0 0 1-5.715 6.477c-1.5 1.446-1.5 1.446-1.285 3.523l2.938 2.25c10.25 8.675 15.71 22.682 21.37 34.51 5.721 11.82 11.552 20.56 24.38 25.053 36.509 11.344 84.552-2.723 120.808-10.633l1.992-.434a797 797 0 0 0 9.138-2.056l3.194-.721 2.759-.643c4.019-.541 5.892.298 9.183 2.635l2.926 2.414 2.949 2.398C528 596 528 596 529 599c-10.3 3.058-20.803 5.184-31.312 7.375l-2.869.6A943 943 0 0 1 445 616l-3.38.531c-14.54 2.275-28.823 3.652-43.558 3.719l-3.334.028c-16.627-.063-32.101-2.822-44.728-14.278l-1.824-1.547c-8.63-7.834-13.368-18.691-18.176-29.078-7.41-15.888-15.325-26.07-32.278-32.309-15.28-5.168-31.737-6.663-47.722-8.066.548-5.085 3.024-8.81 5.563-13.125 19.046-33.428 27.9-71.385 27.812-109.687l-.002-2.712c-.138-49.61-16.03-99.568-47.373-138.476l-2.168-2.746c-5.64-7.038-11.654-13.69-17.832-20.254l-1.867-1.996c-4.97-5.149-10.53-9.567-16.133-14.004l-1.589-1.264c-6.586-5.224-13.173-10.032-20.462-14.263L174 215v-3c22.44-2.663 44.701-4.407 67.313-4.375"/><path fill="#662113" d="M429.438 1.188C434.368 4.675 438.006 8.227 440 14c.688 6.848.578 11.978-3 18-1.875 2.281-1.875 2.281-4 4.5-14.887 16.188-26.39 34.26-35 54.5l-.823 1.926c-4.698 11.214-7.644 22.861-10.552 34.645-.506 1.968-1.091 3.916-1.7 5.855-1.34 5.178-1.895 10.39-2.488 15.699l-.4 3.46c-.902 8.153-1.456 16.272-1.483 24.476-.136 6.443-1.625 12.542-5.93 17.535-5.125 4.588-10.622 5.897-17.32 5.716-5.365-.727-9.615-3.216-13.179-7.25-4.625-6.665-4.476-12.423-4.437-20.312l.014-3.632c.716-55.873 20.082-111.954 56.825-154.266a294 294 0 0 0 5.786-6.914c7.327-8.01 16.805-10.315 27.125-6.75"/><path fill="#fedda1" d="m241.313 207.625 2.981-.005c10.377.002 20.675.318 31.01 1.267l2.522.228c25.64 2.615 47.845 14.198 67.523 30.34 24.01 19.62 46.447 28.359 77.676 25.243 26.87-3.578 54.1-13.084 79.161-23.195l2.642-1.054 2.247-.927C509 239 509 239 512 240l-1.358 1.326q-3.109 3.048-6.204 6.112l-2.25 2.213c-3.711 3.699-7.042 7.27-9.938 11.661-2.537 3.48-4.478 4.303-8.66 5.176-4.327.976-8.554 2.058-12.79 3.38-36.193 11.216-73.247 19.696-108.494 1.278-8.766-4.765-16.492-10.664-24.247-16.912-4.803-3.864-9.663-7.643-15.122-10.547a157 157 0 0 1-8.062-4.605c-20.715-12.674-44.085-14.623-67.949-14.42-3.069.026-6.137.028-9.205.029-11.366.038-22.433.658-33.721 1.934-9.3.987-15.273.226-22.746-5.615-1.47-1.278-2.866-2.642-4.254-4.01l-2.375-2.336L173 213c2.009-2.009 5.838-1.674 8.598-1.973l2.425-.265c19.11-2.037 38.068-3.158 57.29-3.137"/><path fill="#fedea1" d="M308.523 529.203c16.324 6.334 25.914 18.758 33.54 34.11l3.097 6.074 1.477 2.923A595 595 0 0 0 352 582.625l1.5 2.852c4.992 8.397 12.034 13.113 21.262 15.98 37.277 9.043 82.08-3.28 118.734-11.277l1.992-.434a797 797 0 0 0 9.138-2.056l3.194-.721 2.759-.643c4.019-.541 5.892.298 9.183 2.635l2.926 2.414 2.949 2.398C528 596 528 596 529 599c-10.3 3.058-20.803 5.184-31.312 7.375l-2.869.6A943 943 0 0 1 445 616l-3.38.531c-14.54 2.275-28.823 3.652-43.558 3.719l-3.334.028c-16.627-.063-32.101-2.822-44.728-14.278l-1.824-1.547c-8.63-7.834-13.368-18.691-18.176-29.078-7.41-15.888-15.325-26.07-32.278-32.309-15.28-5.168-31.737-6.663-47.722-8.066.946-5.56 2.987-9.69 6.688-13.937 13.57-6.236 38.748 3.364 51.835 8.14"/><path fill="#e09e47" d="M416 339c2.7 1.8 4.542 3.084 6 6 .537 5.115-.529 7.393-3.687 11.375-2.53 3.297-5.02 6.553-7.25 10.063l-1.153 1.808c-3.613 6.962-2.022 15.482-.848 22.879.802 5.34 1.39 9.645-.062 14.875-2.73 3.212-4.343 3.894-8.5 4.563-4.522-.727-5.815-1.881-8.5-5.563-1.007-2.63-1.558-5.224-2-8l-.527-3.148c-1.949-15.876-1.165-29.256 8.586-42.418 10.5-13.163 10.5-13.163 17.941-12.434"/><path fill="#ffbf66" d="M311 353c6.944 4.698 10.71 15.821 12.648 23.602 1.889 12.881-.615 28.281-7.648 39.398-3.737 2.492-5.573 2.458-10 2-2.753-1.796-4.526-3.053-6-6 .32-5.028 1.077-9.441 2.563-14.25 3.184-11.358 1.694-20.322-3.563-30.75-1.427-2.853-1.31-4.835-1-8 3.669-5.503 6.345-6.887 13-6"/></svg>