<svg width="24" height="24" viewBox="0 0 24 24" xmlns="http://www.w3.org/2000/svg"><path fill="#fff" d="M18.984.129a.36.332 0 0 0-.319.233L17.471 3.976l-3.2 1.093a.36.332 0 0 0 0 .623l3.197 1.093 1.195 3.725a.36.332 0 0 0 .691-.001l1.195-3.725 3.199-1.093a.359.331 0 0 0-.001-.623l-3.199-1.093-1.195-3.613A.36.332 0 0 0 18.984.129zM4.171 2.227c-2.251 0-4.063 2.187-4.063 4.904v7.338c0 .017 0 .05 0 .05 0 .935 0 9.524 0 9.524L4.731 19.372h12.178c2.25 0 4.063-2.186 4.062-4.903l-.004-5.19-.504 1.573c-.419 1.312-2.487 1.313-2.907.001L16.537 7.675l-2.65-.904c-.59-.202-1.014-.808-1.014-1.39 0-.582.424-1.188 1.014-1.39l2.657-.906.283-.857C8.46 2.235 7.999 2.227 4.171 2.227z"/></svg>